<svg xmlns="http://www.w3.org/2000/svg" width="24" height="24" id="import">
  <path fill="none" d="M0 0h24v24H0Z"></path>
  <path fill="#525863" d="M5.396 21.605a3 3 0 0 1-3-3V8.777a1 1 0 0 1 1-1 1.174 1.174 0 0 1 1.182 1v9.705a1 1 0 0 0 1 1h12.895a1 1 0 0 0 1-1V5.526a1 1 0 0 0-1-1h-3.408a1.111 1.111 0 0 1-1-1.122 1 1 0 0 1 1-1h3.53a3 3 0 0 1 3 3v13.2a3 3 0 0 1-3 3Zm8.918-7.579-7.022-1.788a.679.679 0 0 1-.509-.576.7.7 0 0 1 .352-.7l2.047-1.183a9.468 9.468 0 0 0-.275-.492c-.958-1.661-2.967-4.433-5.68-4.391a.688.688 0 0 1-.61-.344 1.234 1.234 0 0 1-.068-.16.712.712 0 0 1 .335-.789 8.59 8.59 0 0 1 5.951-.793 8.907 8.907 0 0 1 5.269 4.128l2.019-1.164a.7.7 0 0 1 .779.042.676.676 0 0 1 .246.724l-1.967 6.978a.715.715 0 0 1-.7.524.77.77 0 0 1-.169-.016ZM6.337 4.461a9.92 9.92 0 0 1 3.908 4.009 11.49 11.49 0 0 1 .546 1.051.624.624 0 0 1-.271.789l-1.014.585 4.191 1.063 1.171-4.162-1.014.589a.623.623 0 0 1-.852-.215A7.033 7.033 0 0 0 8.75 4.537a5.437 5.437 0 0 0-1.359-.168 6.276 6.276 0 0 0-1.053.092Z"></path>
</svg>
